# xmcd
#
# Track frame offsets: 
#        150
#        27490
#        58611
#        84613
#        118881
#        137078
#        165512
#        186021
#        215493
#
# Disc length: 3307 seconds
#
# Revision: 0
# Processed by: cddbd v1.5.2PL0 Copyright (c) Steve Scherf et al.
# Submitted via: ExactAudioCopyFreeDBPlugin 1.0
#
DISCID=7e0ce909
DTITLE=Youn Kamm and Bagad Penn ar Bed - Le Bagad du Bout do Monde
DYEAR=2015
DGENRE=Breton
TTITLE0=Ar vosenn
TTITLE1=Kalon skorn
TTITLE2=Doh koste er hoed
TTITLE3=Ne ouelit ket
TTITLE4=Div vinourez
TTITLE5=Digor1 - An ti dizor
TTITLE6=Digor 2 - An alc'hweziou
TTITLE7=Selaouit
TTITLE8=Ton evit ar vugale
EXTD=
EXTT0=
EXTT1=
EXTT2=
EXTT3=
EXTT4=
EXTT5=
EXTT6=
EXTT7=
EXTT8=
PLAYORDER=
